<?xml version="1.0" encoding="UTF-8"?>
<!-- Generated by Pixelmator Pro 3.6.10 -->
<svg width="32" height="32" viewBox="0 0 32 32" xmlns="http://www.w3.org/2000/svg">
    <g id="Group">
        <path id="Path" fill="none" stroke="#f2f2f2" stroke-width="2" stroke-linejoin="round" d="M 31 16 C 31 24.284271 24.284271 31 16 31 C 7.715729 31 1 24.284271 1 16 C 1 7.715729 7.715729 1 16 1 C 24.284271 1 31 7.715729 31 16 Z"/>
        <path id="path1" fill="none" stroke="#f2f2f2" stroke-width="2" stroke-linejoin="round" d="M 26 27 L 26 27 C 26 21.476999 21.523001 17 16 17 L 16 17 C 10.477 17 6 21.476999 6 27 L 6 27"/>
        <path id="path2" fill="none" stroke="#f2f2f2" stroke-width="2" stroke-linejoin="round" d="M 22 11 C 22 14.313709 19.313709 17 16 17 C 12.686292 17 10 14.313709 10 11 C 10 7.686291 12.686292 5 16 5 C 19.313709 5 22 7.686291 22 11 Z"/>
    </g>
</svg>
